<?xml version="1.0" encoding="utf-8"?>
<!-- Generator: Adobe Illustrator 22.0.1, SVG Export Plug-In . SVG Version: 6.00 Build 0)  -->
<svg version="1.1" id="Layer_1" xmlns="http://www.w3.org/2000/svg" xmlns:xlink="http://www.w3.org/1999/xlink" x="0px" y="0px"
	 viewBox="0 0 16 16" style="fill:#fff; enable-background:new 0 0 16 16;" xml:space="preserve">
<g>
	<path d="M2.7,0C2.1,0.1,1.7,0.6,1.8,1.2C1.9,1.7,2.4,2.1,3,2h1v2.8C3.8,5.2,1.6,9.4,0.7,11C0.4,11.5,0,12.2,0,13.1
		c0,0.8,0.3,1.5,0.8,2.1S2.1,16,2.9,16h10.2c0.8,0,1.5-0.3,2-0.8h0.1c0.5-0.5,0.8-1.3,0.8-2.1c0-0.9-0.4-1.6-0.7-2.1
		c-0.9-1.6-3.1-5.8-3.3-6.2V2h1c0.6,0,1-0.4,1-1s-0.4-1-1-1H3C3,0,2.9,0,2.8,0C2.8,0,2.8,0,2.7,0L2.7,0z M6,2h4v3.3l0.1,0.2
		c0,0,1.3,2.5,2.4,4.6h-9c1.1-2.1,2.4-4.6,2.4-4.6L6,5.3V2z"/>
</g>
</svg>
