<?xml version="1.0" encoding="utf-8"?>
<!-- Generator: Adobe Illustrator 22.0.1, SVG Export Plug-In . SVG Version: 6.00 Build 0)  -->
<svg version="1.1" id="Layer_1" xmlns="http://www.w3.org/2000/svg" xmlns:xlink="http://www.w3.org/1999/xlink" x="0px" y="0px"
	 viewBox="0 0 344.3 198" style="enable-background:new 0 0 344.3 198;" xml:space="preserve">
<style type="text/css">
	.st0{fill:#F69D2C;}
</style>
<polygon class="st0" points="344.7,131 344.7,101.8 317.7,101.8 317.7,131 302.9,131 302.9,88 283.7,88 283.7,50.9 279.9,50.9 
	276.4,40.2 273,40.2 270.1,31.1 253.2,31.1 253.2,6.9 250.4,6.9 250.4,31.1 246.4,31.1 243.4,40.2 240.1,40.2 236.6,50.9 
	232.8,50.9 232.8,101.8 213,101.8 213,88 187.5,88 187.5,0 136.6,0 136.6,79.2 119.6,79.2 119.6,28.3 63.1,50.9 63.1,110.3 
	50.9,110.3 50.9,67.9 0,67.9 0,131 0,152.7 0,198 345.3,198 345.3,131 "/>
</svg>
