<?xml version="1.0" encoding="utf-8"?>
<!-- Generator: Adobe Illustrator 22.0.1, SVG Export Plug-In . SVG Version: 6.00 Build 0)  -->
<svg version="1.1" id="Layer_1" xmlns="http://www.w3.org/2000/svg" xmlns:xlink="http://www.w3.org/1999/xlink" x="0px" y="0px"
	 viewBox="0 0 16 16" style="fill:#fff; enable-background:new 0 0 16 16;" xml:space="preserve">
<path d="M8,16c-0.2,0-0.4-0.1-0.6-0.3L1.3,8.7C0.5,7.7,0,6.4,0,5.1c0-1.3,0.5-2.6,1.3-3.6c0.9-1,2-1.5,3.1-1.5
	c1.2,0,2.3,0.5,3.1,1.5C7.7,1.7,7.9,1.9,8,2.2c0.1-0.2,0.3-0.5,0.5-0.7c0.9-1,2-1.5,3.1-1.5c1.2,0,2.3,0.5,3.1,1.5
	c0.8,1,1.3,2.3,1.3,3.6c0,1.3-0.5,2.6-1.3,3.6l-6.1,7.1C8.4,15.9,8.2,16,8,16z M4.4,1.9c-0.9,0-1.6,0.5-2,1C1.9,3.4,1.6,4.2,1.6,5.1
	c0,1.1,0.5,1.8,0.8,2.3L8,13.7l5.5-6.4c0.5-0.6,0.8-1.4,0.8-2.3c0-0.8-0.3-1.6-0.8-2.3c-0.5-0.6-1.2-0.9-1.9-0.9c-0.7,0-1.4,0.3-2,1
	C9.1,3.4,8.8,4.2,8.8,5.1C8.8,5.6,8.5,6,8,6S7.2,5.6,7.2,5.1c0-1.1-0.5-1.8-0.8-2.3C5.8,2.2,5.1,1.9,4.4,1.9z"/>
</svg>
