<?xml version="1.0" encoding="utf-8"?>
<!-- Generator: Adobe Illustrator 22.0.1, SVG Export Plug-In . SVG Version: 6.00 Build 0)  -->
<svg version="1.1" id="Layer_1" xmlns="http://www.w3.org/2000/svg" xmlns:xlink="http://www.w3.org/1999/xlink" x="0px" y="0px"
	 viewBox="0 0 336.5 71.7" style="enable-background:new 0 0 336.5 71.7;" xml:space="preserve">
<style type="text/css">
	.st0{fill:#C85D28;}
	.st1{fill:#FB9A2D;}
</style>
<g>
	<g>
		<g>
			<path class="st0" d="M28.8,12.9C26,11,22.9,10,19.5,10c-7,0-11.6,4.8-11.6,12.6c0,7.9,4.5,12.9,11.7,12.9c3.7,0,7.1-1.4,9.8-3.2
				l1.3,6.4c-2.9,1.7-7.3,2.8-11.4,2.8c-11,0-18.4-6.9-18.4-18.6C0.9,11.4,8.3,4,19.5,4c4.2,0,8.5,1.1,11.5,2.8L28.8,12.9z"/>
			<path class="st0" d="M40.1,9.5c-2.6,0-4.1-1.6-4.1-4.1c0-2.4,1.5-4.1,4.1-4.1c2.7,0,4.2,1.7,4.2,4.1C44.3,7.9,42.8,9.5,40.1,9.5z
				 M36.7,40.6V14.4l6.7-1v27.1H36.7z"/>
			<path class="st0" d="M57.4,40.6h-6.7V14.4l6.7-1v4.3c1.7-2.8,3.8-4.3,6.9-4.3c1.6,0,3.3,0.3,4.7,1.2l-1.5,6.1
				c-1.3-0.7-2.5-1-3.8-1c-2.3,0-4.5,1.5-6.3,4.7V40.6z"/>
			<path class="st0" d="M84.2,41.4c-8.6,0-13.7-5.3-13.7-13.9c0-8.6,5.6-14.1,13.9-14.1c3.6,0,6.7,0.8,9.1,2.2L92.1,21
				c-2.2-1.4-4.7-2.1-7.1-2.1c-4.9,0-7.5,3.3-7.5,8.4c0,5.4,3,8.5,7.5,8.5c2.7,0,5.3-0.7,7.3-2.1l1.1,5.5
				C91,40.6,87.7,41.4,84.2,41.4z"/>
			<path class="st0" d="M98.9,40.6V2.4l6.7-0.9v39.1H98.9z"/>
			<path class="st0" d="M117.9,28.9c0.3,4.3,3.2,7.2,7.9,7.2c2.8,0,5.8-0.9,8.2-2.4l0.9,5.6c-2.5,1.4-6,2.2-9.5,2.2
				c-8.5,0-14.1-5.4-14.1-13.8c0-8.6,5.7-14.3,13.6-14.3c7,0,10.9,4.2,10.9,10.7c0,1.4-0.2,3.3-0.6,4.4c-0.1,0-17.3,0.2-17.3,0.2
				V28.9z M129.4,24.7c0-0.1,0-0.4,0-0.5c0-3.5-1.5-5.8-5-5.8c-3.7,0-5.9,3-6.3,6.3L129.4,24.7z"/>
			<path class="st0" d="M164.5,41.4c-7.7,0-13.3-5.3-13.3-14c0-8.7,5.9-14.1,13.7-14.1c7.8,0,13.3,5.4,13.3,14.1
				C178.1,36,172.2,41.4,164.5,41.4z M164.6,18.8c-4.4,0-6.8,3.5-6.8,8.6c0,5,2.5,8.6,6.9,8.6c4.3,0,6.7-3.4,6.7-8.5
				S168.9,18.8,164.6,18.8z"/>
			<path class="st0" d="M199.3,7.9c-1.3-0.6-2.7-1.1-4.3-1.1c-2.5,0-3.5,1.4-3.5,4.7v2.9h7.8l-0.2,5.5h-7.5v20.6H185V20l-4.6-0.3
				l0.2-4.3l4.3-1.3l0.1-2.8c0.2-7.5,3.7-10.5,9.5-10.5c2.6,0,4.9,0.7,6.2,1.3C200.7,2.2,199.3,8,199.3,7.9z"/>
			<path class="st0" d="M216.9,40.6V4.9h7v29.6H240v6.1H216.9z"/>
			<path class="st0" d="M248.7,9.5c-2.6,0-4.1-1.6-4.1-4.1c0-2.4,1.5-4.1,4.1-4.1c2.7,0,4.2,1.7,4.2,4.1
				C252.9,7.9,251.4,9.5,248.7,9.5z M245.3,40.6V14.4l6.7-1v27.1H245.3z"/>
			<path class="st0" d="M258.2,37.1c0-2.4,1.9-4.6,4.9-5.5c-2.9-1.5-4.8-4.5-4.8-8.1c0-5.4,4.3-10.1,11.6-10.1c3,0,5.6,0.9,7.4,1.7
				l7.1-0.6l0.3,5.9l-5-0.9c0.7,0.7,1.2,2.7,1.2,4.1c0,5.4-4.5,9.6-11,9.6c-1.3,0-2.2-0.1-3.6-0.5c-0.9,0.3-2.1,1.2-2.1,2.3
				c0,1.4,1.2,2.1,5.4,2.1c0,0,3.1,0,2.7,0c7.5,0,11.8,2.1,11.8,7.3c0,6.2-7,10.5-15.4,10.5c-7,0-12.5-2.6-12.5-7.3
				c0-2.7,2-5.2,5.9-5.8C259.9,40.9,258.2,39.2,258.2,37.1z M262.4,46.1c0,2.5,3,4.2,7.5,4.2c4.6,0,8.2-1.7,8.2-4.5
				c0-2.5-2.4-3-7.3-3c-1.7,0-3.9-0.1-5-0.2C263.8,43.3,262.4,44.5,262.4,46.1z M269.9,28.8c3,0,4.7-2.2,4.7-5.5
				c0-3.1-1.7-5.3-5-5.3c-3,0-4.9,2.2-4.9,5.5C264.8,26.6,266.7,28.8,269.9,28.8z"/>
			<path class="st0" d="M306.4,40.6V24.5c0-3.9-1.5-5.2-4.4-5.2c-2.5,0-4.7,1.2-6,2.5v18.8h-6.7V2.4l6.7-0.9c0,0,0,15.6,0,16
				c2.3-2.6,5.5-4.2,8.9-4.2c5.1,0,8.2,3.4,8.2,9.1v18.1H306.4z"/>
			<path class="st0" d="M329.5,41.4c-5.9,0-9-2.6-8.7-8.9l0.4-12.4l-4.1-0.5l0.2-4.3l4.1-1.3l0.1-5.8h6.5l-0.1,6.2h7.4l-0.2,5.5
				h-7.7l-0.3,12.2c-0.1,2.5,1.2,3.6,3.5,3.6c1.4,0,2.7-0.3,4.1-0.8l0.9,5.5C333.6,41.1,331.8,41.4,329.5,41.4z"/>
			<path class="st1" d="M18.5,71.4h-3.3l-1.4-4H6.9l-1.4,4H2.2l6.2-17h4L18.5,71.4z M10.4,57.3l-2.6,7.4h5.1L10.4,57.3z"/>
			<path class="st1" d="M39.2,66.7c0-1.4-1.3-1.9-3.8-2.6c-2.4-0.7-5.3-1.8-5.3-5.1c0-3,2.3-5,6.1-5c2.3,0,4.2,0.6,5.8,1.5l-0.8,2.8
				c-1.5-0.9-3.4-1.5-5-1.5c-2,0-2.9,0.8-2.9,2c0,1.4,1.5,1.9,3.9,2.6c2.6,0.7,5.2,1.9,5.2,5.1c0,3.1-2.5,5.3-6.5,5.3
				c-2.3,0-4.5-0.6-6.1-1.6l0.8-2.9c1.6,1,3.4,1.6,5.4,1.6C37.9,69,39.2,68.1,39.2,66.7z"/>
			<path class="st1" d="M65,66.7c0-1.4-1.3-1.9-3.8-2.6C58.8,63.5,56,62.4,56,59c0-3,2.3-5,6.1-5c2.3,0,4.2,0.6,5.8,1.5l-0.8,2.8
				c-1.5-0.9-3.4-1.5-5-1.5c-2,0-2.9,0.8-2.9,2c0,1.4,1.5,1.9,3.9,2.6c2.6,0.7,5.2,1.9,5.2,5.1c0,3.1-2.5,5.3-6.5,5.3
				c-2.3,0-4.5-0.6-6.1-1.6l0.8-2.9c1.6,1,3.4,1.6,5.4,1.6C63.7,69,65,68.1,65,66.7z"/>
			<path class="st1" d="M89,71.8c-5,0-8.7-3.3-8.7-8.9c0-5.2,3.7-8.9,8.8-8.9c5,0,8.7,3.3,8.7,8.8C97.7,68.1,94,71.8,89,71.8z
				 M89,56.8c-3.2,0-5.3,2.4-5.3,6.1c0,3.7,2.1,6.2,5.4,6.2c3.2,0,5.4-2.5,5.4-6.1C94.4,59.2,92.3,56.8,89,56.8z"/>
			<path class="st1" d="M122,58.2c-1.4-0.9-2.8-1.4-4.5-1.4c-3.3,0-5.5,2.3-5.5,6c0,3.8,2.1,6.1,5.6,6.1c1.7,0,3.4-0.7,4.6-1.5
				l0.6,3c-1.4,0.8-3.5,1.3-5.4,1.3c-5.2,0-8.8-3.3-8.8-8.9c0-5.4,3.6-8.9,8.9-8.9c2,0,4,0.5,5.5,1.3L122,58.2z"/>
			<path class="st1" d="M136.4,71.4v-17h3.3v17H136.4z"/>
			<path class="st1" d="M168.6,71.4h-3.3l-1.4-4H157l-1.4,4h-3.3l6.2-17h4L168.6,71.4z M160.4,57.3l-2.6,7.4h5.1L160.4,57.3z"/>
			<path class="st1" d="M187,57.3v14.1h-3.3V57.3H178v-2.9h14.7v2.9H187z"/>
			<path class="st1" d="M204.7,71.4v-17h11.6v2.8H208v4.3h6.8v2.8H208v4.3h8.3v2.8H204.7z"/>
			<path class="st1" d="M238.1,66.7c0-1.4-1.3-1.9-3.8-2.6c-2.4-0.7-5.3-1.8-5.3-5.1c0-3,2.3-5,6.1-5c2.3,0,4.2,0.6,5.8,1.5
				l-0.8,2.8c-1.5-0.9-3.4-1.5-5-1.5c-2,0-2.9,0.8-2.9,2c0,1.4,1.5,1.9,3.9,2.6c2.6,0.7,5.2,1.9,5.2,5.1c0,3.1-2.5,5.3-6.5,5.3
				c-2.3,0-4.5-0.6-6.1-1.6l0.8-2.9c1.6,1,3.4,1.6,5.4,1.6C236.8,69,238.1,68.1,238.1,66.7z"/>
		</g>
	</g>
</g>
</svg>
