<?xml version="1.0" encoding="utf-8"?>
<!-- Generator: Adobe Illustrator 22.0.1, SVG Export Plug-In . SVG Version: 6.00 Build 0)  -->
<svg version="1.1" id="Layer_1" xmlns="http://www.w3.org/2000/svg" xmlns:xlink="http://www.w3.org/1999/xlink" x="0px" y="0px"
	 viewBox="0 0 16 16" style="fill:#fff; enable-background:new 0 0 16 16;" xml:space="preserve">
<g>
	<path d="M15.7,3c-0.2-0.1-0.4,0.1-0.5,0.3c0,0,0,0.1-0.1,0.1c0,0,0,0,0,0.1C15,3.5,15,3.6,15,3.7c-0.2,0.4-0.4,0.8-0.7,1.1
		c0,0,0,0.1-0.1,0.1c0,0,0,0,0,0c0,0-0.1,0.1-0.1,0.1c-0.1,0.1-0.1,0.2-0.2,0.2c-0.2,0.2-0.3,0.3-0.5,0.5c0,0-0.1,0.1-0.1,0.1
		c0,0-0.1,0.1-0.1,0.1C13.1,6,13,6,13,6.1c-0.2,0.1-0.3,0.2-0.5,0.3c0.1-0.1,0.3-0.2,0.4-0.3c1-1,1.1-2.4,1.1-2.6l0-0.5
		c0-0.3-0.2-0.5-0.5-0.5c-0.3,0-0.5,0-0.5,0c-0.1,0-1.4,0-2.3,0.8c0-0.1,0-0.2,0-0.3c0.1-0.8,0-1.6-0.1-2.4c0-0.2-0.2-0.4-0.4-0.4
		C9.9,0,9.6,0.2,9.6,0.4C9.7,1.2,9.8,2,9.7,2.8c0,0.1,0,0.2,0,0.3c0,0,0,0,0,0c0,0,0,0,0,0c0,0,0,0,0,0.1c0,0,0,0.1,0,0.1
		c0,0.2-0.1,0.4-0.1,0.6c0,0.1-0.1,0.2-0.1,0.3c0,0,0,0,0,0C9.1,3.6,8.7,3.1,8.7,3.1L8.3,2.7c-0.2-0.2-0.5-0.2-0.7,0
		S7.2,3.1,7.2,3.1C7.1,3.2,6.3,4,6.1,5.2L5.8,5C5.6,4.8,5.4,4.8,5.2,5C5,5.2,4.8,5.4,4.8,5.4c-0.1,0.1-0.9,1-1.1,2.2L3.4,7.3
		C3.2,7.1,3,7.2,2.8,7.4C2.6,7.6,2.4,7.7,2.4,7.7c-0.1,0.1-1.1,1.2-1.1,2.6c0,1.4,1,2.5,1.1,2.6l0.1,0.1l-2.3,2.2
		c-0.3,0.2-0.3,0.6-0.1,0.8c0.2,0.2,0.5,0.1,0.8-0.1l2.3-2.2c0.1,0.1,1.2,1.1,2.6,1.1c1.4,0,2.5-1,2.6-1.1l0.4-0.4
		C9,13,9.1,12.8,8.9,12.6c-0.2-0.2-0.3-0.3-0.3-0.3c1.2-0.2,2.1-1,2.3-1.1l0.4-0.4c0.2-0.2,0.2-0.5,0.1-0.6C11.1,10.1,11,10,11,10
		c1.2-0.2,2.1-1,2.3-1.1l0.4-0.4c0.2-0.2,0.2-0.5,0-0.7c-0.2-0.2-0.4-0.4-0.4-0.4c0,0-0.2-0.2-0.5-0.4c0.7-0.3,1.4-0.8,1.9-1.4
		c0.6-0.7,1.1-1.4,1.4-2.3C16.1,3.2,15.9,3,15.7,3z M11,4.1c0.8-0.7,2-0.7,2-0.7s0,1.2-0.8,1.9c-0.8,0.7-2,0.7-2,0.7
		S10.2,4.9,11,4.1z M7.9,3.8c0,0,0.8,0.8,0.8,1.9c0,1-0.8,1.9-0.8,1.9S7.1,6.6,7.1,5.6C7.1,4.6,7.9,3.8,7.9,3.8z M5.5,6.1
		c0,0,0.8,0.8,0.8,1.9S5.5,9.8,5.5,9.8S4.7,9,4.7,7.9C4.7,6.9,5.5,6.1,5.5,6.1z M3.1,12.1c0,0-0.8-0.8-0.8-1.9c0-1,0.8-1.9,0.8-1.9
		S4,9.2,4,10.3C4,11.3,3.1,12.1,3.1,12.1z M5.8,13.7c-1,0-1.8-0.7-1.9-0.8l0.2-0.2c0.3-0.2,1-0.7,1.7-0.7c1.1,0,1.9,0.8,1.9,0.8
		S6.9,13.7,5.8,13.7z M8.2,11.4c-1,0-1.8-0.7-1.9-0.8l0.2-0.2c0.3-0.2,1-0.7,1.7-0.7c1.1,0,1.9,0.8,1.9,0.8S9.3,11.4,8.2,11.4z
		 M10.6,9c-1,0-1.8-0.7-1.9-0.8l0,0l0,0c0.2-0.2,1-0.8,1.9-0.8c1.1,0,1.9,0.8,1.9,0.8S11.7,9,10.6,9z"/>
</g>
</svg>
